<svg width="640" height="360" viewBox="0 0 640 360" xmlns="http://www.w3.org/2000/svg">
  <defs>
    <linearGradient id="bg-mines" x1="0%" y1="0%" x2="100%" y2="100%">
      <stop offset="0%" style="stop-color:#1a0533;stop-opacity:1"/>
      <stop offset="100%" style="stop-color:#020202;stop-opacity:1"/>
    </linearGradient>
    <radialGradient id="glow-mines" cx="50%" cy="40%" r="50%">
      <stop offset="0%" style="stop-color:#a855f7;stop-opacity:0.3"/>
      <stop offset="100%" style="stop-color:#a855f7;stop-opacity:0"/>
    </radialGradient>
  </defs>
  <rect width="640" height="360" fill="url(#bg-mines)"/>
  <rect width="640" height="360" fill="url(#glow-mines)"/>
  <g transform="translate(270,120)">
    <rect x="0" y="0" width="30" height="30" rx="4" fill="#a855f7" opacity="0.3" stroke="#a855f7" stroke-width="1" stroke-opacity="0.5"/>
    <rect x="35" y="0" width="30" height="30" rx="4" fill="#a855f7" opacity="0.15" stroke="#a855f7" stroke-width="1" stroke-opacity="0.3"/>
    <rect x="70" y="0" width="30" height="30" rx="4" fill="#a855f7" opacity="0.3" stroke="#a855f7" stroke-width="1" stroke-opacity="0.5"/>
    <rect x="0" y="35" width="30" height="30" rx="4" fill="#a855f7" opacity="0.15" stroke="#a855f7" stroke-width="1" stroke-opacity="0.3"/>
    <rect x="35" y="35" width="30" height="30" rx="4" fill="#FFD700" opacity="0.4" stroke="#FFD700" stroke-width="1.5" stroke-opacity="0.6"/>
    <rect x="70" y="35" width="30" height="30" rx="4" fill="#a855f7" opacity="0.15" stroke="#a855f7" stroke-width="1" stroke-opacity="0.3"/>
    <rect x="0" y="70" width="30" height="30" rx="4" fill="#a855f7" opacity="0.3" stroke="#a855f7" stroke-width="1" stroke-opacity="0.5"/>
    <rect x="35" y="70" width="30" height="30" rx="4" fill="#a855f7" opacity="0.15" stroke="#a855f7" stroke-width="1" stroke-opacity="0.3"/>
    <rect x="70" y="70" width="30" height="30" rx="4" fill="#a855f7" opacity="0.3" stroke="#a855f7" stroke-width="1" stroke-opacity="0.5"/>
  </g>
  <text x="320" y="280" font-family="system-ui,sans-serif" font-size="11" fill="#a855f7" opacity="0.4" text-anchor="middle" letter-spacing="4">CRYPTO MINES</text>
</svg>
