<svg width="640" height="360" viewBox="0 0 640 360" xmlns="http://www.w3.org/2000/svg">
  <defs>
    <linearGradient id="bg-plinko" x1="0%" y1="0%" x2="100%" y2="100%">
      <stop offset="0%" style="stop-color:#052e16;stop-opacity:1"/>
      <stop offset="100%" style="stop-color:#020202;stop-opacity:1"/>
    </linearGradient>
    <radialGradient id="glow-plinko" cx="50%" cy="40%" r="50%">
      <stop offset="0%" style="stop-color:#10b981;stop-opacity:0.25"/>
      <stop offset="100%" style="stop-color:#10b981;stop-opacity:0"/>
    </radialGradient>
  </defs>
  <rect width="640" height="360" fill="url(#bg-plinko)"/>
  <rect width="640" height="360" fill="url(#glow-plinko)"/>
  <g opacity="0.4">
    <circle cx="320" cy="80" r="4" fill="#10b981"/><circle cx="290" cy="120" r="4" fill="#10b981"/><circle cx="350" cy="120" r="4" fill="#10b981"/>
    <circle cx="260" cy="160" r="4" fill="#10b981"/><circle cx="320" cy="160" r="4" fill="#10b981"/><circle cx="380" cy="160" r="4" fill="#10b981"/>
    <circle cx="230" cy="200" r="4" fill="#10b981"/><circle cx="290" cy="200" r="4" fill="#10b981"/><circle cx="350" cy="200" r="4" fill="#10b981"/><circle cx="410" cy="200" r="4" fill="#10b981"/>
    <circle cx="200" cy="240" r="4" fill="#10b981"/><circle cx="260" cy="240" r="4" fill="#10b981"/><circle cx="320" cy="240" r="4" fill="#10b981"/><circle cx="380" cy="240" r="4" fill="#10b981"/><circle cx="440" cy="240" r="4" fill="#10b981"/>
  </g>
  <circle cx="320" cy="60" r="7" fill="#FFD700" opacity="0.8"/>
  <text x="320" y="310" font-family="system-ui,sans-serif" font-size="11" fill="#10b981" opacity="0.4" text-anchor="middle" letter-spacing="4">NEON PLINKO</text>
</svg>
