<svg width="640" height="360" viewBox="0 0 640 360" xmlns="http://www.w3.org/2000/svg">
  <defs>
    <linearGradient id="bg-slots" x1="0%" y1="0%" x2="100%" y2="100%">
      <stop offset="0%" style="stop-color:#1a1200;stop-opacity:1"/>
      <stop offset="100%" style="stop-color:#020202;stop-opacity:1"/>
    </linearGradient>
    <radialGradient id="glow-slots" cx="50%" cy="40%" r="50%">
      <stop offset="0%" style="stop-color:#FFD700;stop-opacity:0.25"/>
      <stop offset="100%" style="stop-color:#FFD700;stop-opacity:0"/>
    </radialGradient>
  </defs>
  <rect width="640" height="360" fill="url(#bg-slots)"/>
  <rect width="640" height="360" fill="url(#glow-slots)"/>
  <!-- 3x5 slot grid -->
  <g transform="translate(185,90)">
    <rect x="0" y="0" width="46" height="46" rx="6" fill="#FFD700" opacity="0.12" stroke="#FFD700" stroke-width="1" stroke-opacity="0.3"/>
    <rect x="54" y="0" width="46" height="46" rx="6" fill="#FFD700" opacity="0.08" stroke="#FFD700" stroke-width="1" stroke-opacity="0.2"/>
    <rect x="108" y="0" width="46" height="46" rx="6" fill="#FFD700" opacity="0.15" stroke="#FFD700" stroke-width="1" stroke-opacity="0.4"/>
    <rect x="162" y="0" width="46" height="46" rx="6" fill="#FFD700" opacity="0.08" stroke="#FFD700" stroke-width="1" stroke-opacity="0.2"/>
    <rect x="216" y="0" width="46" height="46" rx="6" fill="#FFD700" opacity="0.12" stroke="#FFD700" stroke-width="1" stroke-opacity="0.3"/>

    <rect x="0" y="54" width="46" height="46" rx="6" fill="#FFD700" opacity="0.08" stroke="#FFD700" stroke-width="1" stroke-opacity="0.2"/>
    <rect x="54" y="54" width="46" height="46" rx="6" fill="#00FF41" opacity="0.2" stroke="#00FF41" stroke-width="1.5" stroke-opacity="0.5"/>
    <rect x="108" y="54" width="46" height="46" rx="6" fill="#FFD700" opacity="0.25" stroke="#FFD700" stroke-width="1.5" stroke-opacity="0.6"/>
    <rect x="162" y="54" width="46" height="46" rx="6" fill="#00FF41" opacity="0.2" stroke="#00FF41" stroke-width="1.5" stroke-opacity="0.5"/>
    <rect x="216" y="54" width="46" height="46" rx="6" fill="#FFD700" opacity="0.08" stroke="#FFD700" stroke-width="1" stroke-opacity="0.2"/>

    <rect x="0" y="108" width="46" height="46" rx="6" fill="#FFD700" opacity="0.12" stroke="#FFD700" stroke-width="1" stroke-opacity="0.3"/>
    <rect x="54" y="108" width="46" height="46" rx="6" fill="#FFD700" opacity="0.08" stroke="#FFD700" stroke-width="1" stroke-opacity="0.2"/>
    <rect x="108" y="108" width="46" height="46" rx="6" fill="#FFD700" opacity="0.12" stroke="#FFD700" stroke-width="1" stroke-opacity="0.3"/>
    <rect x="162" y="108" width="46" height="46" rx="6" fill="#FFD700" opacity="0.08" stroke="#FFD700" stroke-width="1" stroke-opacity="0.2"/>
    <rect x="216" y="108" width="46" height="46" rx="6" fill="#FFD700" opacity="0.15" stroke="#FFD700" stroke-width="1" stroke-opacity="0.4"/>

    <!-- 7 symbol in center -->
    <text x="131" y="86" font-family="system-ui,sans-serif" font-size="22" fill="#FFD700" opacity="0.7" text-anchor="middle" font-weight="bold">7</text>
    <!-- Leaf scatter indicators -->
    <text x="23" y="132" font-family="system-ui,sans-serif" font-size="14" fill="#00FF41" opacity="0.5" text-anchor="middle"><?</text>
    <text x="239" y="28" font-family="system-ui,sans-serif" font-size="14" fill="#00FF41" opacity="0.5" text-anchor="middle"><?</text>
  </g>
  <!-- payline highlight -->
  <line x1="185" y1="167" x2="447" y2="167" stroke="#FFD700" stroke-width="1.5" stroke-opacity="0.25" stroke-dasharray="4 3"/>
  <text x="320" y="290" font-family="system-ui,sans-serif" font-size="11" fill="#FFD700" opacity="0.4" text-anchor="middle" letter-spacing="4">CYBER SLOTS</text>
</svg>
